<mxfile host="Electron" modified="2024-12-10T22:36:51.513Z" agent="Mozilla/5.0 (Windows NT 10.0; Win64; x64) AppleWebKit/537.36 (KHTML, like Gecko) draw.io/24.6.4 Chrome/124.0.6367.207 Electron/30.0.6 Safari/537.36" etag="3D0M7wsOpkY3SVxLZ6dP" version="24.6.4" type="device">
  <diagram name="Страница — 1" id="4FMlXGNtW7jrKRB_OOBr">
    <mxGraphModel dx="862" dy="390" grid="1" gridSize="10" guides="1" tooltips="1" connect="1" arrows="1" fold="1" page="1" pageScale="1" pageWidth="1169" pageHeight="827" math="0" shadow="0">
      <root>
        <mxCell id="0" />
        <mxCell id="1" parent="0" />
        <mxCell id="DYGGpJQ-MnpBP76g9-tN-10" value="" style="edgeStyle=none;shape=connector;rounded=1;orthogonalLoop=1;jettySize=auto;html=1;strokeColor=default;align=center;verticalAlign=middle;fontFamily=Helvetica;fontSize=11;fontColor=default;labelBackgroundColor=default;endArrow=classic;" edge="1" parent="1" source="DYGGpJQ-MnpBP76g9-tN-7" target="DYGGpJQ-MnpBP76g9-tN-9">
          <mxGeometry relative="1" as="geometry" />
        </mxCell>
        <mxCell id="DYGGpJQ-MnpBP76g9-tN-12" value="" style="edgeStyle=none;shape=connector;rounded=1;orthogonalLoop=1;jettySize=auto;html=1;strokeColor=default;align=center;verticalAlign=middle;fontFamily=Helvetica;fontSize=11;fontColor=default;labelBackgroundColor=default;endArrow=classic;" edge="1" parent="1" source="DYGGpJQ-MnpBP76g9-tN-7" target="DYGGpJQ-MnpBP76g9-tN-11">
          <mxGeometry relative="1" as="geometry" />
        </mxCell>
        <mxCell id="DYGGpJQ-MnpBP76g9-tN-7" value="S" style="ellipse;whiteSpace=wrap;html=1;aspect=fixed;rounded=1;fontFamily=Helvetica;fontSize=11;fontColor=default;labelBackgroundColor=default;" vertex="1" parent="1">
          <mxGeometry x="211" y="70" width="30" height="30" as="geometry" />
        </mxCell>
        <mxCell id="DYGGpJQ-MnpBP76g9-tN-15" value="" style="edgeStyle=none;shape=connector;rounded=1;orthogonalLoop=1;jettySize=auto;html=1;strokeColor=default;align=center;verticalAlign=middle;fontFamily=Helvetica;fontSize=11;fontColor=default;labelBackgroundColor=default;endArrow=classic;" edge="1" parent="1" source="DYGGpJQ-MnpBP76g9-tN-9" target="DYGGpJQ-MnpBP76g9-tN-14">
          <mxGeometry relative="1" as="geometry">
            <mxPoint x="90.0012105213132" y="139.99717545026928" as="sourcePoint" />
          </mxGeometry>
        </mxCell>
        <mxCell id="DYGGpJQ-MnpBP76g9-tN-21" value="" style="edgeStyle=none;shape=connector;rounded=1;orthogonalLoop=1;jettySize=auto;html=1;strokeColor=default;align=center;verticalAlign=middle;fontFamily=Helvetica;fontSize=11;fontColor=default;labelBackgroundColor=default;endArrow=classic;" edge="1" parent="1" source="DYGGpJQ-MnpBP76g9-tN-9" target="DYGGpJQ-MnpBP76g9-tN-20">
          <mxGeometry relative="1" as="geometry" />
        </mxCell>
        <mxCell id="DYGGpJQ-MnpBP76g9-tN-9" value="O" style="ellipse;whiteSpace=wrap;html=1;aspect=fixed;rounded=1;fontFamily=Helvetica;fontSize=11;fontColor=default;labelBackgroundColor=default;" vertex="1" parent="1">
          <mxGeometry x="90" y="110" width="30" height="30" as="geometry" />
        </mxCell>
        <mxCell id="DYGGpJQ-MnpBP76g9-tN-131" value="" style="edgeStyle=none;shape=connector;rounded=1;orthogonalLoop=1;jettySize=auto;html=1;strokeColor=default;align=center;verticalAlign=middle;fontFamily=Helvetica;fontSize=11;fontColor=default;labelBackgroundColor=default;endArrow=classic;" edge="1" parent="1" source="DYGGpJQ-MnpBP76g9-tN-11" target="DYGGpJQ-MnpBP76g9-tN-130">
          <mxGeometry relative="1" as="geometry" />
        </mxCell>
        <mxCell id="DYGGpJQ-MnpBP76g9-tN-133" style="edgeStyle=none;shape=connector;rounded=1;orthogonalLoop=1;jettySize=auto;html=1;strokeColor=default;align=center;verticalAlign=middle;fontFamily=Helvetica;fontSize=11;fontColor=default;labelBackgroundColor=default;endArrow=classic;" edge="1" parent="1" source="DYGGpJQ-MnpBP76g9-tN-11" target="DYGGpJQ-MnpBP76g9-tN-78">
          <mxGeometry relative="1" as="geometry" />
        </mxCell>
        <mxCell id="DYGGpJQ-MnpBP76g9-tN-137" style="edgeStyle=none;shape=connector;rounded=1;orthogonalLoop=1;jettySize=auto;html=1;strokeColor=default;align=center;verticalAlign=middle;fontFamily=Helvetica;fontSize=11;fontColor=default;labelBackgroundColor=default;endArrow=classic;" edge="1" parent="1" source="DYGGpJQ-MnpBP76g9-tN-11" target="DYGGpJQ-MnpBP76g9-tN-135">
          <mxGeometry relative="1" as="geometry" />
        </mxCell>
        <mxCell id="DYGGpJQ-MnpBP76g9-tN-11" value="S`" style="ellipse;whiteSpace=wrap;html=1;aspect=fixed;rounded=1;fontFamily=Helvetica;fontSize=11;fontColor=default;labelBackgroundColor=default;" vertex="1" parent="1">
          <mxGeometry x="320" y="110" width="30" height="30" as="geometry" />
        </mxCell>
        <mxCell id="DYGGpJQ-MnpBP76g9-tN-14" value="a" style="ellipse;whiteSpace=wrap;html=1;aspect=fixed;rounded=1;fontFamily=Helvetica;fontSize=11;fontColor=default;labelBackgroundColor=default;" vertex="1" parent="1">
          <mxGeometry x="40" y="170" width="30" height="30" as="geometry" />
        </mxCell>
        <mxCell id="DYGGpJQ-MnpBP76g9-tN-23" value="" style="edgeStyle=none;shape=connector;rounded=1;orthogonalLoop=1;jettySize=auto;html=1;strokeColor=default;align=center;verticalAlign=middle;fontFamily=Helvetica;fontSize=11;fontColor=default;labelBackgroundColor=default;endArrow=classic;" edge="1" parent="1" source="DYGGpJQ-MnpBP76g9-tN-20" target="DYGGpJQ-MnpBP76g9-tN-22">
          <mxGeometry relative="1" as="geometry" />
        </mxCell>
        <mxCell id="DYGGpJQ-MnpBP76g9-tN-26" value="" style="edgeStyle=none;shape=connector;rounded=1;orthogonalLoop=1;jettySize=auto;html=1;strokeColor=default;align=center;verticalAlign=middle;fontFamily=Helvetica;fontSize=11;fontColor=default;labelBackgroundColor=default;endArrow=classic;" edge="1" parent="1" source="DYGGpJQ-MnpBP76g9-tN-20" target="DYGGpJQ-MnpBP76g9-tN-25">
          <mxGeometry relative="1" as="geometry" />
        </mxCell>
        <mxCell id="DYGGpJQ-MnpBP76g9-tN-20" value="O1" style="ellipse;whiteSpace=wrap;html=1;aspect=fixed;rounded=1;fontFamily=Helvetica;fontSize=11;fontColor=default;labelBackgroundColor=default;" vertex="1" parent="1">
          <mxGeometry x="120" y="170" width="30" height="30" as="geometry" />
        </mxCell>
        <mxCell id="DYGGpJQ-MnpBP76g9-tN-22" value="=" style="ellipse;whiteSpace=wrap;html=1;aspect=fixed;rounded=1;fontFamily=Helvetica;fontSize=11;fontColor=default;labelBackgroundColor=default;" vertex="1" parent="1">
          <mxGeometry x="80" y="220" width="30" height="30" as="geometry" />
        </mxCell>
        <mxCell id="DYGGpJQ-MnpBP76g9-tN-28" style="edgeStyle=none;shape=connector;rounded=1;orthogonalLoop=1;jettySize=auto;html=1;strokeColor=default;align=center;verticalAlign=middle;fontFamily=Helvetica;fontSize=11;fontColor=default;labelBackgroundColor=default;endArrow=classic;" edge="1" parent="1" source="DYGGpJQ-MnpBP76g9-tN-25" target="DYGGpJQ-MnpBP76g9-tN-27">
          <mxGeometry relative="1" as="geometry" />
        </mxCell>
        <mxCell id="DYGGpJQ-MnpBP76g9-tN-30" style="edgeStyle=none;shape=connector;rounded=1;orthogonalLoop=1;jettySize=auto;html=1;strokeColor=default;align=center;verticalAlign=middle;fontFamily=Helvetica;fontSize=11;fontColor=default;labelBackgroundColor=default;endArrow=classic;" edge="1" parent="1" source="DYGGpJQ-MnpBP76g9-tN-25" target="DYGGpJQ-MnpBP76g9-tN-29">
          <mxGeometry relative="1" as="geometry" />
        </mxCell>
        <mxCell id="DYGGpJQ-MnpBP76g9-tN-25" value="O2" style="ellipse;whiteSpace=wrap;html=1;aspect=fixed;rounded=1;fontFamily=Helvetica;fontSize=11;fontColor=default;labelBackgroundColor=default;" vertex="1" parent="1">
          <mxGeometry x="160" y="220" width="30" height="30" as="geometry" />
        </mxCell>
        <mxCell id="DYGGpJQ-MnpBP76g9-tN-27" value="a" style="ellipse;whiteSpace=wrap;html=1;aspect=fixed;rounded=1;fontFamily=Helvetica;fontSize=11;fontColor=default;labelBackgroundColor=default;" vertex="1" parent="1">
          <mxGeometry x="130" y="270" width="30" height="30" as="geometry" />
        </mxCell>
        <mxCell id="DYGGpJQ-MnpBP76g9-tN-32" value="" style="edgeStyle=none;shape=connector;rounded=1;orthogonalLoop=1;jettySize=auto;html=1;strokeColor=default;align=center;verticalAlign=middle;fontFamily=Helvetica;fontSize=11;fontColor=default;labelBackgroundColor=default;endArrow=classic;" edge="1" parent="1" source="DYGGpJQ-MnpBP76g9-tN-29" target="DYGGpJQ-MnpBP76g9-tN-31">
          <mxGeometry relative="1" as="geometry" />
        </mxCell>
        <mxCell id="DYGGpJQ-MnpBP76g9-tN-34" style="edgeStyle=none;shape=connector;rounded=1;orthogonalLoop=1;jettySize=auto;html=1;strokeColor=default;align=center;verticalAlign=middle;fontFamily=Helvetica;fontSize=11;fontColor=default;labelBackgroundColor=default;endArrow=classic;" edge="1" parent="1" source="DYGGpJQ-MnpBP76g9-tN-29" target="DYGGpJQ-MnpBP76g9-tN-33">
          <mxGeometry relative="1" as="geometry" />
        </mxCell>
        <mxCell id="DYGGpJQ-MnpBP76g9-tN-40" style="edgeStyle=none;shape=connector;rounded=1;orthogonalLoop=1;jettySize=auto;html=1;strokeColor=default;align=center;verticalAlign=middle;fontFamily=Helvetica;fontSize=11;fontColor=default;labelBackgroundColor=default;endArrow=classic;" edge="1" parent="1" source="DYGGpJQ-MnpBP76g9-tN-29" target="DYGGpJQ-MnpBP76g9-tN-37">
          <mxGeometry relative="1" as="geometry" />
        </mxCell>
        <mxCell id="DYGGpJQ-MnpBP76g9-tN-42" style="edgeStyle=none;shape=connector;rounded=1;orthogonalLoop=1;jettySize=auto;html=1;strokeColor=default;align=center;verticalAlign=middle;fontFamily=Helvetica;fontSize=11;fontColor=default;labelBackgroundColor=default;endArrow=classic;" edge="1" parent="1" source="DYGGpJQ-MnpBP76g9-tN-29" target="DYGGpJQ-MnpBP76g9-tN-41">
          <mxGeometry relative="1" as="geometry" />
        </mxCell>
        <mxCell id="DYGGpJQ-MnpBP76g9-tN-29" value="O3" style="ellipse;whiteSpace=wrap;html=1;aspect=fixed;rounded=1;fontFamily=Helvetica;fontSize=11;fontColor=default;labelBackgroundColor=default;" vertex="1" parent="1">
          <mxGeometry x="200" y="270" width="30" height="30" as="geometry" />
        </mxCell>
        <mxCell id="DYGGpJQ-MnpBP76g9-tN-31" value="[" style="ellipse;whiteSpace=wrap;html=1;aspect=fixed;rounded=1;fontFamily=Helvetica;fontSize=11;fontColor=default;labelBackgroundColor=default;" vertex="1" parent="1">
          <mxGeometry x="150" y="330" width="30" height="30" as="geometry" />
        </mxCell>
        <mxCell id="DYGGpJQ-MnpBP76g9-tN-33" value="]" style="ellipse;whiteSpace=wrap;html=1;aspect=fixed;rounded=1;fontFamily=Helvetica;fontSize=11;fontColor=default;labelBackgroundColor=default;" vertex="1" parent="1">
          <mxGeometry x="250" y="330" width="30" height="30" as="geometry" />
        </mxCell>
        <mxCell id="DYGGpJQ-MnpBP76g9-tN-35" value="" style="edgeStyle=none;shape=connector;rounded=1;orthogonalLoop=1;jettySize=auto;html=1;strokeColor=default;align=center;verticalAlign=middle;fontFamily=Helvetica;fontSize=11;fontColor=default;labelBackgroundColor=default;endArrow=classic;" edge="1" parent="1" source="DYGGpJQ-MnpBP76g9-tN-37" target="DYGGpJQ-MnpBP76g9-tN-45">
          <mxGeometry relative="1" as="geometry">
            <mxPoint x="175.60660171779818" y="384.3933982822018" as="targetPoint" />
          </mxGeometry>
        </mxCell>
        <mxCell id="DYGGpJQ-MnpBP76g9-tN-36" value="" style="edgeStyle=none;shape=connector;rounded=1;orthogonalLoop=1;jettySize=auto;html=1;strokeColor=default;align=center;verticalAlign=middle;fontFamily=Helvetica;fontSize=11;fontColor=default;labelBackgroundColor=default;endArrow=classic;" edge="1" parent="1" source="DYGGpJQ-MnpBP76g9-tN-37" target="DYGGpJQ-MnpBP76g9-tN-39">
          <mxGeometry relative="1" as="geometry" />
        </mxCell>
        <mxCell id="DYGGpJQ-MnpBP76g9-tN-37" value="S" style="ellipse;whiteSpace=wrap;html=1;aspect=fixed;rounded=1;fontFamily=Helvetica;fontSize=11;fontColor=default;labelBackgroundColor=default;" vertex="1" parent="1">
          <mxGeometry x="200" y="330" width="30" height="30" as="geometry" />
        </mxCell>
        <mxCell id="DYGGpJQ-MnpBP76g9-tN-73" value="" style="edgeStyle=none;shape=connector;rounded=1;orthogonalLoop=1;jettySize=auto;html=1;strokeColor=default;align=center;verticalAlign=middle;fontFamily=Helvetica;fontSize=11;fontColor=default;labelBackgroundColor=default;endArrow=classic;" edge="1" parent="1" source="DYGGpJQ-MnpBP76g9-tN-39" target="DYGGpJQ-MnpBP76g9-tN-72">
          <mxGeometry relative="1" as="geometry" />
        </mxCell>
        <mxCell id="DYGGpJQ-MnpBP76g9-tN-39" value="S`" style="ellipse;whiteSpace=wrap;html=1;aspect=fixed;rounded=1;fontFamily=Helvetica;fontSize=11;fontColor=default;labelBackgroundColor=default;" vertex="1" parent="1">
          <mxGeometry x="220" y="380" width="30" height="30" as="geometry" />
        </mxCell>
        <mxCell id="DYGGpJQ-MnpBP76g9-tN-75" value="" style="edgeStyle=none;shape=connector;rounded=1;orthogonalLoop=1;jettySize=auto;html=1;strokeColor=default;align=center;verticalAlign=middle;fontFamily=Helvetica;fontSize=11;fontColor=default;labelBackgroundColor=default;endArrow=classic;" edge="1" parent="1" source="DYGGpJQ-MnpBP76g9-tN-41" target="DYGGpJQ-MnpBP76g9-tN-74">
          <mxGeometry relative="1" as="geometry" />
        </mxCell>
        <mxCell id="DYGGpJQ-MnpBP76g9-tN-41" value="O`" style="ellipse;whiteSpace=wrap;html=1;aspect=fixed;rounded=1;fontFamily=Helvetica;fontSize=11;fontColor=default;labelBackgroundColor=default;" vertex="1" parent="1">
          <mxGeometry x="293" y="330" width="30" height="30" as="geometry" />
        </mxCell>
        <mxCell id="DYGGpJQ-MnpBP76g9-tN-43" value="" style="edgeStyle=none;shape=connector;rounded=1;orthogonalLoop=1;jettySize=auto;html=1;strokeColor=default;align=center;verticalAlign=middle;fontFamily=Helvetica;fontSize=11;fontColor=default;labelBackgroundColor=default;endArrow=classic;" edge="1" parent="1" source="DYGGpJQ-MnpBP76g9-tN-45" target="DYGGpJQ-MnpBP76g9-tN-46">
          <mxGeometry relative="1" as="geometry">
            <mxPoint x="150.00121052131317" y="409.9971754502693" as="sourcePoint" />
          </mxGeometry>
        </mxCell>
        <mxCell id="DYGGpJQ-MnpBP76g9-tN-44" value="" style="edgeStyle=none;shape=connector;rounded=1;orthogonalLoop=1;jettySize=auto;html=1;strokeColor=default;align=center;verticalAlign=middle;fontFamily=Helvetica;fontSize=11;fontColor=default;labelBackgroundColor=default;endArrow=classic;" edge="1" parent="1" source="DYGGpJQ-MnpBP76g9-tN-45" target="DYGGpJQ-MnpBP76g9-tN-49">
          <mxGeometry relative="1" as="geometry" />
        </mxCell>
        <mxCell id="DYGGpJQ-MnpBP76g9-tN-45" value="O" style="ellipse;whiteSpace=wrap;html=1;aspect=fixed;rounded=1;fontFamily=Helvetica;fontSize=11;fontColor=default;labelBackgroundColor=default;" vertex="1" parent="1">
          <mxGeometry x="150" y="380" width="30" height="30" as="geometry" />
        </mxCell>
        <mxCell id="DYGGpJQ-MnpBP76g9-tN-46" value="a" style="ellipse;whiteSpace=wrap;html=1;aspect=fixed;rounded=1;fontFamily=Helvetica;fontSize=11;fontColor=default;labelBackgroundColor=default;" vertex="1" parent="1">
          <mxGeometry x="100" y="440" width="30" height="30" as="geometry" />
        </mxCell>
        <mxCell id="DYGGpJQ-MnpBP76g9-tN-47" value="" style="edgeStyle=none;shape=connector;rounded=1;orthogonalLoop=1;jettySize=auto;html=1;strokeColor=default;align=center;verticalAlign=middle;fontFamily=Helvetica;fontSize=11;fontColor=default;labelBackgroundColor=default;endArrow=classic;" edge="1" parent="1" source="DYGGpJQ-MnpBP76g9-tN-49" target="DYGGpJQ-MnpBP76g9-tN-50">
          <mxGeometry relative="1" as="geometry" />
        </mxCell>
        <mxCell id="DYGGpJQ-MnpBP76g9-tN-48" value="" style="edgeStyle=none;shape=connector;rounded=1;orthogonalLoop=1;jettySize=auto;html=1;strokeColor=default;align=center;verticalAlign=middle;fontFamily=Helvetica;fontSize=11;fontColor=default;labelBackgroundColor=default;endArrow=classic;" edge="1" parent="1" source="DYGGpJQ-MnpBP76g9-tN-49" target="DYGGpJQ-MnpBP76g9-tN-53">
          <mxGeometry relative="1" as="geometry" />
        </mxCell>
        <mxCell id="DYGGpJQ-MnpBP76g9-tN-49" value="O1" style="ellipse;whiteSpace=wrap;html=1;aspect=fixed;rounded=1;fontFamily=Helvetica;fontSize=11;fontColor=default;labelBackgroundColor=default;" vertex="1" parent="1">
          <mxGeometry x="180" y="440" width="30" height="30" as="geometry" />
        </mxCell>
        <mxCell id="DYGGpJQ-MnpBP76g9-tN-50" value="=" style="ellipse;whiteSpace=wrap;html=1;aspect=fixed;rounded=1;fontFamily=Helvetica;fontSize=11;fontColor=default;labelBackgroundColor=default;" vertex="1" parent="1">
          <mxGeometry x="140" y="490" width="30" height="30" as="geometry" />
        </mxCell>
        <mxCell id="DYGGpJQ-MnpBP76g9-tN-51" style="edgeStyle=none;shape=connector;rounded=1;orthogonalLoop=1;jettySize=auto;html=1;strokeColor=default;align=center;verticalAlign=middle;fontFamily=Helvetica;fontSize=11;fontColor=default;labelBackgroundColor=default;endArrow=classic;" edge="1" parent="1" source="DYGGpJQ-MnpBP76g9-tN-53" target="DYGGpJQ-MnpBP76g9-tN-54">
          <mxGeometry relative="1" as="geometry" />
        </mxCell>
        <mxCell id="DYGGpJQ-MnpBP76g9-tN-56" value="" style="edgeStyle=none;shape=connector;rounded=1;orthogonalLoop=1;jettySize=auto;html=1;strokeColor=default;align=center;verticalAlign=middle;fontFamily=Helvetica;fontSize=11;fontColor=default;labelBackgroundColor=default;endArrow=classic;" edge="1" parent="1" source="DYGGpJQ-MnpBP76g9-tN-53" target="DYGGpJQ-MnpBP76g9-tN-55">
          <mxGeometry relative="1" as="geometry" />
        </mxCell>
        <mxCell id="DYGGpJQ-MnpBP76g9-tN-53" value="O2" style="ellipse;whiteSpace=wrap;html=1;aspect=fixed;rounded=1;fontFamily=Helvetica;fontSize=11;fontColor=default;labelBackgroundColor=default;" vertex="1" parent="1">
          <mxGeometry x="220" y="490" width="30" height="30" as="geometry" />
        </mxCell>
        <mxCell id="DYGGpJQ-MnpBP76g9-tN-54" value="(" style="ellipse;whiteSpace=wrap;html=1;aspect=fixed;rounded=1;fontFamily=Helvetica;fontSize=11;fontColor=default;labelBackgroundColor=default;" vertex="1" parent="1">
          <mxGeometry x="180" y="540" width="30" height="30" as="geometry" />
        </mxCell>
        <mxCell id="DYGGpJQ-MnpBP76g9-tN-60" value="" style="edgeStyle=none;shape=connector;rounded=1;orthogonalLoop=1;jettySize=auto;html=1;strokeColor=default;align=center;verticalAlign=middle;fontFamily=Helvetica;fontSize=11;fontColor=default;labelBackgroundColor=default;endArrow=classic;" edge="1" parent="1" source="DYGGpJQ-MnpBP76g9-tN-55" target="DYGGpJQ-MnpBP76g9-tN-59">
          <mxGeometry relative="1" as="geometry" />
        </mxCell>
        <mxCell id="DYGGpJQ-MnpBP76g9-tN-55" value="E" style="ellipse;whiteSpace=wrap;html=1;aspect=fixed;rounded=1;fontFamily=Helvetica;fontSize=11;fontColor=default;labelBackgroundColor=default;" vertex="1" parent="1">
          <mxGeometry x="240" y="540" width="30" height="30" as="geometry" />
        </mxCell>
        <mxCell id="DYGGpJQ-MnpBP76g9-tN-63" value="" style="edgeStyle=none;shape=connector;rounded=1;orthogonalLoop=1;jettySize=auto;html=1;strokeColor=default;align=center;verticalAlign=middle;fontFamily=Helvetica;fontSize=11;fontColor=default;labelBackgroundColor=default;endArrow=classic;" edge="1" parent="1" source="DYGGpJQ-MnpBP76g9-tN-57" target="DYGGpJQ-MnpBP76g9-tN-62">
          <mxGeometry relative="1" as="geometry" />
        </mxCell>
        <mxCell id="DYGGpJQ-MnpBP76g9-tN-65" value="" style="edgeStyle=none;shape=connector;rounded=1;orthogonalLoop=1;jettySize=auto;html=1;strokeColor=default;align=center;verticalAlign=middle;fontFamily=Helvetica;fontSize=11;fontColor=default;labelBackgroundColor=default;endArrow=classic;" edge="1" parent="1" source="DYGGpJQ-MnpBP76g9-tN-57" target="DYGGpJQ-MnpBP76g9-tN-64">
          <mxGeometry relative="1" as="geometry" />
        </mxCell>
        <mxCell id="DYGGpJQ-MnpBP76g9-tN-68" value="" style="edgeStyle=none;shape=connector;rounded=1;orthogonalLoop=1;jettySize=auto;html=1;strokeColor=default;align=center;verticalAlign=middle;fontFamily=Helvetica;fontSize=11;fontColor=default;labelBackgroundColor=default;endArrow=classic;" edge="1" parent="1" source="DYGGpJQ-MnpBP76g9-tN-57" target="DYGGpJQ-MnpBP76g9-tN-67">
          <mxGeometry relative="1" as="geometry" />
        </mxCell>
        <mxCell id="DYGGpJQ-MnpBP76g9-tN-57" value="E`" style="ellipse;whiteSpace=wrap;html=1;aspect=fixed;rounded=1;fontFamily=Helvetica;fontSize=11;fontColor=default;labelBackgroundColor=default;" vertex="1" parent="1">
          <mxGeometry x="300" y="540" width="30" height="30" as="geometry" />
        </mxCell>
        <mxCell id="DYGGpJQ-MnpBP76g9-tN-58" value="" style="edgeStyle=none;shape=connector;rounded=1;orthogonalLoop=1;jettySize=auto;html=1;strokeColor=default;align=center;verticalAlign=middle;fontFamily=Helvetica;fontSize=11;fontColor=default;labelBackgroundColor=default;endArrow=classic;" edge="1" parent="1" source="DYGGpJQ-MnpBP76g9-tN-53" target="DYGGpJQ-MnpBP76g9-tN-57">
          <mxGeometry relative="1" as="geometry">
            <mxPoint x="251" y="529" as="sourcePoint" />
            <mxPoint x="259" y="551" as="targetPoint" />
          </mxGeometry>
        </mxCell>
        <mxCell id="DYGGpJQ-MnpBP76g9-tN-59" value="a" style="ellipse;whiteSpace=wrap;html=1;aspect=fixed;rounded=1;fontFamily=Helvetica;fontSize=11;fontColor=default;labelBackgroundColor=default;" vertex="1" parent="1">
          <mxGeometry x="240" y="590" width="30" height="30" as="geometry" />
        </mxCell>
        <mxCell id="DYGGpJQ-MnpBP76g9-tN-62" value="+" style="ellipse;whiteSpace=wrap;html=1;aspect=fixed;rounded=1;fontFamily=Helvetica;fontSize=11;fontColor=default;labelBackgroundColor=default;" vertex="1" parent="1">
          <mxGeometry x="290" y="590" width="30" height="30" as="geometry" />
        </mxCell>
        <mxCell id="DYGGpJQ-MnpBP76g9-tN-70" style="edgeStyle=none;shape=connector;rounded=1;orthogonalLoop=1;jettySize=auto;html=1;strokeColor=default;align=center;verticalAlign=middle;fontFamily=Helvetica;fontSize=11;fontColor=default;labelBackgroundColor=default;endArrow=classic;" edge="1" parent="1" source="DYGGpJQ-MnpBP76g9-tN-64" target="DYGGpJQ-MnpBP76g9-tN-69">
          <mxGeometry relative="1" as="geometry" />
        </mxCell>
        <mxCell id="DYGGpJQ-MnpBP76g9-tN-64" value="E" style="ellipse;whiteSpace=wrap;html=1;aspect=fixed;rounded=1;fontFamily=Helvetica;fontSize=11;fontColor=default;labelBackgroundColor=default;" vertex="1" parent="1">
          <mxGeometry x="330" y="590" width="30" height="30" as="geometry" />
        </mxCell>
        <mxCell id="DYGGpJQ-MnpBP76g9-tN-67" value=")" style="ellipse;whiteSpace=wrap;html=1;aspect=fixed;rounded=1;fontFamily=Helvetica;fontSize=11;fontColor=default;labelBackgroundColor=default;" vertex="1" parent="1">
          <mxGeometry x="370" y="590" width="30" height="30" as="geometry" />
        </mxCell>
        <mxCell id="DYGGpJQ-MnpBP76g9-tN-69" value="a" style="ellipse;whiteSpace=wrap;html=1;aspect=fixed;rounded=1;fontFamily=Helvetica;fontSize=11;fontColor=default;labelBackgroundColor=default;" vertex="1" parent="1">
          <mxGeometry x="330" y="640" width="30" height="30" as="geometry" />
        </mxCell>
        <mxCell id="DYGGpJQ-MnpBP76g9-tN-72" value="e" style="ellipse;whiteSpace=wrap;html=1;aspect=fixed;rounded=1;fontFamily=Helvetica;fontSize=11;fontColor=default;labelBackgroundColor=default;" vertex="1" parent="1">
          <mxGeometry x="220" y="440" width="30" height="30" as="geometry" />
        </mxCell>
        <mxCell id="DYGGpJQ-MnpBP76g9-tN-74" value="e" style="ellipse;whiteSpace=wrap;html=1;aspect=fixed;rounded=1;fontFamily=Helvetica;fontSize=11;fontColor=default;labelBackgroundColor=default;" vertex="1" parent="1">
          <mxGeometry x="294" y="380" width="30" height="30" as="geometry" />
        </mxCell>
        <mxCell id="DYGGpJQ-MnpBP76g9-tN-76" value="" style="edgeStyle=none;shape=connector;rounded=1;orthogonalLoop=1;jettySize=auto;html=1;strokeColor=default;align=center;verticalAlign=middle;fontFamily=Helvetica;fontSize=11;fontColor=default;labelBackgroundColor=default;endArrow=classic;" edge="1" parent="1" source="DYGGpJQ-MnpBP76g9-tN-78" target="DYGGpJQ-MnpBP76g9-tN-79">
          <mxGeometry relative="1" as="geometry">
            <mxPoint x="320.00121052131317" y="199.99717545026928" as="sourcePoint" />
          </mxGeometry>
        </mxCell>
        <mxCell id="DYGGpJQ-MnpBP76g9-tN-77" value="" style="edgeStyle=none;shape=connector;rounded=1;orthogonalLoop=1;jettySize=auto;html=1;strokeColor=default;align=center;verticalAlign=middle;fontFamily=Helvetica;fontSize=11;fontColor=default;labelBackgroundColor=default;endArrow=classic;" edge="1" parent="1" source="DYGGpJQ-MnpBP76g9-tN-78" target="DYGGpJQ-MnpBP76g9-tN-82">
          <mxGeometry relative="1" as="geometry" />
        </mxCell>
        <mxCell id="DYGGpJQ-MnpBP76g9-tN-139" style="edgeStyle=none;shape=connector;rounded=1;orthogonalLoop=1;jettySize=auto;html=1;strokeColor=default;align=center;verticalAlign=middle;fontFamily=Helvetica;fontSize=11;fontColor=default;labelBackgroundColor=default;endArrow=classic;" edge="1" parent="1" source="DYGGpJQ-MnpBP76g9-tN-78" target="DYGGpJQ-MnpBP76g9-tN-138">
          <mxGeometry relative="1" as="geometry" />
        </mxCell>
        <mxCell id="DYGGpJQ-MnpBP76g9-tN-145" style="edgeStyle=none;shape=connector;rounded=1;orthogonalLoop=1;jettySize=auto;html=1;strokeColor=default;align=center;verticalAlign=middle;fontFamily=Helvetica;fontSize=11;fontColor=default;labelBackgroundColor=default;endArrow=classic;" edge="1" parent="1" source="DYGGpJQ-MnpBP76g9-tN-78" target="DYGGpJQ-MnpBP76g9-tN-140">
          <mxGeometry relative="1" as="geometry" />
        </mxCell>
        <mxCell id="DYGGpJQ-MnpBP76g9-tN-146" style="edgeStyle=none;shape=connector;rounded=1;orthogonalLoop=1;jettySize=auto;html=1;strokeColor=default;align=center;verticalAlign=middle;fontFamily=Helvetica;fontSize=11;fontColor=default;labelBackgroundColor=default;endArrow=classic;" edge="1" parent="1" source="DYGGpJQ-MnpBP76g9-tN-78" target="DYGGpJQ-MnpBP76g9-tN-141">
          <mxGeometry relative="1" as="geometry" />
        </mxCell>
        <mxCell id="DYGGpJQ-MnpBP76g9-tN-147" style="edgeStyle=none;shape=connector;rounded=1;orthogonalLoop=1;jettySize=auto;html=1;strokeColor=default;align=center;verticalAlign=middle;fontFamily=Helvetica;fontSize=11;fontColor=default;labelBackgroundColor=default;endArrow=classic;" edge="1" parent="1" source="DYGGpJQ-MnpBP76g9-tN-78" target="DYGGpJQ-MnpBP76g9-tN-143">
          <mxGeometry relative="1" as="geometry" />
        </mxCell>
        <mxCell id="DYGGpJQ-MnpBP76g9-tN-148" style="edgeStyle=none;shape=connector;rounded=1;orthogonalLoop=1;jettySize=auto;html=1;strokeColor=default;align=center;verticalAlign=middle;fontFamily=Helvetica;fontSize=11;fontColor=default;labelBackgroundColor=default;endArrow=classic;" edge="1" parent="1" source="DYGGpJQ-MnpBP76g9-tN-78" target="DYGGpJQ-MnpBP76g9-tN-142">
          <mxGeometry relative="1" as="geometry" />
        </mxCell>
        <mxCell id="DYGGpJQ-MnpBP76g9-tN-149" style="edgeStyle=none;shape=connector;rounded=1;orthogonalLoop=1;jettySize=auto;html=1;strokeColor=default;align=center;verticalAlign=middle;fontFamily=Helvetica;fontSize=11;fontColor=default;labelBackgroundColor=default;endArrow=classic;" edge="1" parent="1" source="DYGGpJQ-MnpBP76g9-tN-78" target="DYGGpJQ-MnpBP76g9-tN-144">
          <mxGeometry relative="1" as="geometry" />
        </mxCell>
        <mxCell id="DYGGpJQ-MnpBP76g9-tN-78" value="O" style="ellipse;whiteSpace=wrap;html=1;aspect=fixed;rounded=1;fontFamily=Helvetica;fontSize=11;fontColor=default;labelBackgroundColor=default;" vertex="1" parent="1">
          <mxGeometry x="320" y="170" width="30" height="30" as="geometry" />
        </mxCell>
        <mxCell id="DYGGpJQ-MnpBP76g9-tN-79" value="!" style="ellipse;whiteSpace=wrap;html=1;aspect=fixed;rounded=1;fontFamily=Helvetica;fontSize=11;fontColor=default;labelBackgroundColor=default;" vertex="1" parent="1">
          <mxGeometry x="241" y="230" width="30" height="30" as="geometry" />
        </mxCell>
        <mxCell id="DYGGpJQ-MnpBP76g9-tN-80" value="" style="edgeStyle=none;shape=connector;rounded=1;orthogonalLoop=1;jettySize=auto;html=1;strokeColor=default;align=center;verticalAlign=middle;fontFamily=Helvetica;fontSize=11;fontColor=default;labelBackgroundColor=default;endArrow=classic;" edge="1" parent="1" source="DYGGpJQ-MnpBP76g9-tN-82" target="DYGGpJQ-MnpBP76g9-tN-83">
          <mxGeometry relative="1" as="geometry" />
        </mxCell>
        <mxCell id="DYGGpJQ-MnpBP76g9-tN-81" value="" style="edgeStyle=none;shape=connector;rounded=1;orthogonalLoop=1;jettySize=auto;html=1;strokeColor=default;align=center;verticalAlign=middle;fontFamily=Helvetica;fontSize=11;fontColor=default;labelBackgroundColor=default;endArrow=classic;" edge="1" parent="1" source="DYGGpJQ-MnpBP76g9-tN-82" target="DYGGpJQ-MnpBP76g9-tN-86">
          <mxGeometry relative="1" as="geometry" />
        </mxCell>
        <mxCell id="DYGGpJQ-MnpBP76g9-tN-82" value="Y" style="ellipse;whiteSpace=wrap;html=1;aspect=fixed;rounded=1;fontFamily=Helvetica;fontSize=11;fontColor=default;labelBackgroundColor=default;" vertex="1" parent="1">
          <mxGeometry x="340" y="230" width="30" height="30" as="geometry" />
        </mxCell>
        <mxCell id="DYGGpJQ-MnpBP76g9-tN-83" value="a" style="ellipse;whiteSpace=wrap;html=1;aspect=fixed;rounded=1;fontFamily=Helvetica;fontSize=11;fontColor=default;labelBackgroundColor=default;" vertex="1" parent="1">
          <mxGeometry x="310" y="280" width="30" height="30" as="geometry" />
        </mxCell>
        <mxCell id="DYGGpJQ-MnpBP76g9-tN-84" style="edgeStyle=none;shape=connector;rounded=1;orthogonalLoop=1;jettySize=auto;html=1;strokeColor=default;align=center;verticalAlign=middle;fontFamily=Helvetica;fontSize=11;fontColor=default;labelBackgroundColor=default;endArrow=classic;" edge="1" parent="1" source="DYGGpJQ-MnpBP76g9-tN-86" target="DYGGpJQ-MnpBP76g9-tN-87">
          <mxGeometry relative="1" as="geometry" />
        </mxCell>
        <mxCell id="DYGGpJQ-MnpBP76g9-tN-151" style="edgeStyle=none;shape=connector;rounded=1;orthogonalLoop=1;jettySize=auto;html=1;strokeColor=default;align=center;verticalAlign=middle;fontFamily=Helvetica;fontSize=11;fontColor=default;labelBackgroundColor=default;endArrow=classic;" edge="1" parent="1" source="DYGGpJQ-MnpBP76g9-tN-86" target="DYGGpJQ-MnpBP76g9-tN-150">
          <mxGeometry relative="1" as="geometry" />
        </mxCell>
        <mxCell id="DYGGpJQ-MnpBP76g9-tN-86" value="Y`" style="ellipse;whiteSpace=wrap;html=1;aspect=fixed;rounded=1;fontFamily=Helvetica;fontSize=11;fontColor=default;labelBackgroundColor=default;" vertex="1" parent="1">
          <mxGeometry x="390" y="280" width="30" height="30" as="geometry" />
        </mxCell>
        <mxCell id="DYGGpJQ-MnpBP76g9-tN-87" value="a" style="ellipse;whiteSpace=wrap;html=1;aspect=fixed;rounded=1;fontFamily=Helvetica;fontSize=11;fontColor=default;labelBackgroundColor=default;" vertex="1" parent="1">
          <mxGeometry x="410" y="330" width="30" height="30" as="geometry" />
        </mxCell>
        <mxCell id="DYGGpJQ-MnpBP76g9-tN-88" value="" style="edgeStyle=none;shape=connector;rounded=1;orthogonalLoop=1;jettySize=auto;html=1;strokeColor=default;align=center;verticalAlign=middle;fontFamily=Helvetica;fontSize=11;fontColor=default;labelBackgroundColor=default;endArrow=classic;" edge="1" parent="1" source="DYGGpJQ-MnpBP76g9-tN-144" target="DYGGpJQ-MnpBP76g9-tN-93">
          <mxGeometry relative="1" as="geometry">
            <mxPoint x="685.4249619560819" y="276.5463694059006" as="sourcePoint" />
          </mxGeometry>
        </mxCell>
        <mxCell id="DYGGpJQ-MnpBP76g9-tN-89" style="edgeStyle=none;shape=connector;rounded=1;orthogonalLoop=1;jettySize=auto;html=1;strokeColor=default;align=center;verticalAlign=middle;fontFamily=Helvetica;fontSize=11;fontColor=default;labelBackgroundColor=default;endArrow=classic;" edge="1" parent="1" source="DYGGpJQ-MnpBP76g9-tN-144" target="DYGGpJQ-MnpBP76g9-tN-94">
          <mxGeometry relative="1" as="geometry">
            <mxPoint x="704.5750380439179" y="276.54636940590115" as="sourcePoint" />
          </mxGeometry>
        </mxCell>
        <mxCell id="DYGGpJQ-MnpBP76g9-tN-90" style="edgeStyle=none;shape=connector;rounded=1;orthogonalLoop=1;jettySize=auto;html=1;strokeColor=default;align=center;verticalAlign=middle;fontFamily=Helvetica;fontSize=11;fontColor=default;labelBackgroundColor=default;endArrow=classic;" edge="1" parent="1" source="DYGGpJQ-MnpBP76g9-tN-144" target="DYGGpJQ-MnpBP76g9-tN-97">
          <mxGeometry relative="1" as="geometry">
            <mxPoint x="690" y="260" as="sourcePoint" />
          </mxGeometry>
        </mxCell>
        <mxCell id="DYGGpJQ-MnpBP76g9-tN-93" value="[" style="ellipse;whiteSpace=wrap;html=1;aspect=fixed;rounded=1;fontFamily=Helvetica;fontSize=11;fontColor=default;labelBackgroundColor=default;" vertex="1" parent="1">
          <mxGeometry x="630" y="310" width="30" height="30" as="geometry" />
        </mxCell>
        <mxCell id="DYGGpJQ-MnpBP76g9-tN-94" value="]" style="ellipse;whiteSpace=wrap;html=1;aspect=fixed;rounded=1;fontFamily=Helvetica;fontSize=11;fontColor=default;labelBackgroundColor=default;" vertex="1" parent="1">
          <mxGeometry x="730" y="310" width="30" height="30" as="geometry" />
        </mxCell>
        <mxCell id="DYGGpJQ-MnpBP76g9-tN-95" value="" style="edgeStyle=none;shape=connector;rounded=1;orthogonalLoop=1;jettySize=auto;html=1;strokeColor=default;align=center;verticalAlign=middle;fontFamily=Helvetica;fontSize=11;fontColor=default;labelBackgroundColor=default;endArrow=classic;" edge="1" parent="1" source="DYGGpJQ-MnpBP76g9-tN-97" target="DYGGpJQ-MnpBP76g9-tN-104">
          <mxGeometry relative="1" as="geometry">
            <mxPoint x="1005.6066017177982" y="444.3933982822018" as="targetPoint" />
          </mxGeometry>
        </mxCell>
        <mxCell id="DYGGpJQ-MnpBP76g9-tN-96" value="" style="edgeStyle=none;shape=connector;rounded=1;orthogonalLoop=1;jettySize=auto;html=1;strokeColor=default;align=center;verticalAlign=middle;fontFamily=Helvetica;fontSize=11;fontColor=default;labelBackgroundColor=default;endArrow=classic;" edge="1" parent="1" source="DYGGpJQ-MnpBP76g9-tN-97" target="DYGGpJQ-MnpBP76g9-tN-99">
          <mxGeometry relative="1" as="geometry" />
        </mxCell>
        <mxCell id="DYGGpJQ-MnpBP76g9-tN-97" value="S" style="ellipse;whiteSpace=wrap;html=1;aspect=fixed;rounded=1;fontFamily=Helvetica;fontSize=11;fontColor=default;labelBackgroundColor=default;" vertex="1" parent="1">
          <mxGeometry x="680" y="310" width="30" height="30" as="geometry" />
        </mxCell>
        <mxCell id="DYGGpJQ-MnpBP76g9-tN-98" value="" style="edgeStyle=none;shape=connector;rounded=1;orthogonalLoop=1;jettySize=auto;html=1;strokeColor=default;align=center;verticalAlign=middle;fontFamily=Helvetica;fontSize=11;fontColor=default;labelBackgroundColor=default;endArrow=classic;" edge="1" parent="1" source="DYGGpJQ-MnpBP76g9-tN-99" target="DYGGpJQ-MnpBP76g9-tN-127">
          <mxGeometry relative="1" as="geometry" />
        </mxCell>
        <mxCell id="DYGGpJQ-MnpBP76g9-tN-99" value="S`" style="ellipse;whiteSpace=wrap;html=1;aspect=fixed;rounded=1;fontFamily=Helvetica;fontSize=11;fontColor=default;labelBackgroundColor=default;" vertex="1" parent="1">
          <mxGeometry x="760" y="370" width="30" height="30" as="geometry" />
        </mxCell>
        <mxCell id="DYGGpJQ-MnpBP76g9-tN-102" value="" style="edgeStyle=none;shape=connector;rounded=1;orthogonalLoop=1;jettySize=auto;html=1;strokeColor=default;align=center;verticalAlign=middle;fontFamily=Helvetica;fontSize=11;fontColor=default;labelBackgroundColor=default;endArrow=classic;" edge="1" parent="1" source="DYGGpJQ-MnpBP76g9-tN-104" target="DYGGpJQ-MnpBP76g9-tN-105">
          <mxGeometry relative="1" as="geometry">
            <mxPoint x="980.0012105213132" y="469.9971754502693" as="sourcePoint" />
          </mxGeometry>
        </mxCell>
        <mxCell id="DYGGpJQ-MnpBP76g9-tN-103" value="" style="edgeStyle=none;shape=connector;rounded=1;orthogonalLoop=1;jettySize=auto;html=1;strokeColor=default;align=center;verticalAlign=middle;fontFamily=Helvetica;fontSize=11;fontColor=default;labelBackgroundColor=default;endArrow=classic;" edge="1" parent="1" source="DYGGpJQ-MnpBP76g9-tN-104" target="DYGGpJQ-MnpBP76g9-tN-108">
          <mxGeometry relative="1" as="geometry" />
        </mxCell>
        <mxCell id="DYGGpJQ-MnpBP76g9-tN-104" value="O" style="ellipse;whiteSpace=wrap;html=1;aspect=fixed;rounded=1;fontFamily=Helvetica;fontSize=11;fontColor=default;labelBackgroundColor=default;" vertex="1" parent="1">
          <mxGeometry x="680" y="380" width="30" height="30" as="geometry" />
        </mxCell>
        <mxCell id="DYGGpJQ-MnpBP76g9-tN-105" value="a" style="ellipse;whiteSpace=wrap;html=1;aspect=fixed;rounded=1;fontFamily=Helvetica;fontSize=11;fontColor=default;labelBackgroundColor=default;" vertex="1" parent="1">
          <mxGeometry x="680" y="430" width="30" height="30" as="geometry" />
        </mxCell>
        <mxCell id="DYGGpJQ-MnpBP76g9-tN-106" value="" style="edgeStyle=none;shape=connector;rounded=1;orthogonalLoop=1;jettySize=auto;html=1;strokeColor=default;align=center;verticalAlign=middle;fontFamily=Helvetica;fontSize=11;fontColor=default;labelBackgroundColor=default;endArrow=classic;" edge="1" parent="1" source="DYGGpJQ-MnpBP76g9-tN-108" target="DYGGpJQ-MnpBP76g9-tN-109">
          <mxGeometry relative="1" as="geometry" />
        </mxCell>
        <mxCell id="DYGGpJQ-MnpBP76g9-tN-107" value="" style="edgeStyle=none;shape=connector;rounded=1;orthogonalLoop=1;jettySize=auto;html=1;strokeColor=default;align=center;verticalAlign=middle;fontFamily=Helvetica;fontSize=11;fontColor=default;labelBackgroundColor=default;endArrow=classic;" edge="1" parent="1" source="DYGGpJQ-MnpBP76g9-tN-108" target="DYGGpJQ-MnpBP76g9-tN-112">
          <mxGeometry relative="1" as="geometry" />
        </mxCell>
        <mxCell id="DYGGpJQ-MnpBP76g9-tN-108" value="O1" style="ellipse;whiteSpace=wrap;html=1;aspect=fixed;rounded=1;fontFamily=Helvetica;fontSize=11;fontColor=default;labelBackgroundColor=default;" vertex="1" parent="1">
          <mxGeometry x="780" y="430" width="30" height="30" as="geometry" />
        </mxCell>
        <mxCell id="DYGGpJQ-MnpBP76g9-tN-109" value="=" style="ellipse;whiteSpace=wrap;html=1;aspect=fixed;rounded=1;fontFamily=Helvetica;fontSize=11;fontColor=default;labelBackgroundColor=default;" vertex="1" parent="1">
          <mxGeometry x="740" y="480" width="30" height="30" as="geometry" />
        </mxCell>
        <mxCell id="DYGGpJQ-MnpBP76g9-tN-110" style="edgeStyle=none;shape=connector;rounded=1;orthogonalLoop=1;jettySize=auto;html=1;strokeColor=default;align=center;verticalAlign=middle;fontFamily=Helvetica;fontSize=11;fontColor=default;labelBackgroundColor=default;endArrow=classic;" edge="1" parent="1" source="DYGGpJQ-MnpBP76g9-tN-112" target="DYGGpJQ-MnpBP76g9-tN-113">
          <mxGeometry relative="1" as="geometry" />
        </mxCell>
        <mxCell id="DYGGpJQ-MnpBP76g9-tN-111" value="" style="edgeStyle=none;shape=connector;rounded=1;orthogonalLoop=1;jettySize=auto;html=1;strokeColor=default;align=center;verticalAlign=middle;fontFamily=Helvetica;fontSize=11;fontColor=default;labelBackgroundColor=default;endArrow=classic;" edge="1" parent="1" source="DYGGpJQ-MnpBP76g9-tN-112" target="DYGGpJQ-MnpBP76g9-tN-115">
          <mxGeometry relative="1" as="geometry" />
        </mxCell>
        <mxCell id="DYGGpJQ-MnpBP76g9-tN-112" value="O2" style="ellipse;whiteSpace=wrap;html=1;aspect=fixed;rounded=1;fontFamily=Helvetica;fontSize=11;fontColor=default;labelBackgroundColor=default;" vertex="1" parent="1">
          <mxGeometry x="820" y="480" width="30" height="30" as="geometry" />
        </mxCell>
        <mxCell id="DYGGpJQ-MnpBP76g9-tN-113" value="a" style="ellipse;whiteSpace=wrap;html=1;aspect=fixed;rounded=1;fontFamily=Helvetica;fontSize=11;fontColor=default;labelBackgroundColor=default;" vertex="1" parent="1">
          <mxGeometry x="810" y="530" width="30" height="30" as="geometry" />
        </mxCell>
        <mxCell id="DYGGpJQ-MnpBP76g9-tN-114" value="" style="edgeStyle=none;shape=connector;rounded=1;orthogonalLoop=1;jettySize=auto;html=1;strokeColor=default;align=center;verticalAlign=middle;fontFamily=Helvetica;fontSize=11;fontColor=default;labelBackgroundColor=default;endArrow=classic;" edge="1" parent="1" source="DYGGpJQ-MnpBP76g9-tN-115" target="DYGGpJQ-MnpBP76g9-tN-121">
          <mxGeometry relative="1" as="geometry" />
        </mxCell>
        <mxCell id="DYGGpJQ-MnpBP76g9-tN-115" value="O3" style="ellipse;whiteSpace=wrap;html=1;aspect=fixed;rounded=1;fontFamily=Helvetica;fontSize=11;fontColor=default;labelBackgroundColor=default;" vertex="1" parent="1">
          <mxGeometry x="870" y="530" width="30" height="30" as="geometry" />
        </mxCell>
        <mxCell id="DYGGpJQ-MnpBP76g9-tN-121" value="e" style="ellipse;whiteSpace=wrap;html=1;aspect=fixed;rounded=1;fontFamily=Helvetica;fontSize=11;fontColor=default;labelBackgroundColor=default;" vertex="1" parent="1">
          <mxGeometry x="870" y="590" width="30" height="30" as="geometry" />
        </mxCell>
        <mxCell id="DYGGpJQ-MnpBP76g9-tN-127" value="e" style="ellipse;whiteSpace=wrap;html=1;aspect=fixed;rounded=1;fontFamily=Helvetica;fontSize=11;fontColor=default;labelBackgroundColor=default;" vertex="1" parent="1">
          <mxGeometry x="810" y="400" width="30" height="30" as="geometry" />
        </mxCell>
        <mxCell id="DYGGpJQ-MnpBP76g9-tN-130" value=";" style="ellipse;whiteSpace=wrap;html=1;aspect=fixed;rounded=1;fontFamily=Helvetica;fontSize=11;fontColor=default;labelBackgroundColor=default;" vertex="1" parent="1">
          <mxGeometry x="241" y="170" width="30" height="30" as="geometry" />
        </mxCell>
        <mxCell id="DYGGpJQ-MnpBP76g9-tN-134" value="" style="edgeStyle=none;shape=connector;rounded=1;orthogonalLoop=1;jettySize=auto;html=1;strokeColor=default;align=center;verticalAlign=middle;fontFamily=Helvetica;fontSize=11;fontColor=default;labelBackgroundColor=default;endArrow=classic;" edge="1" parent="1" source="DYGGpJQ-MnpBP76g9-tN-135" target="DYGGpJQ-MnpBP76g9-tN-184">
          <mxGeometry relative="1" as="geometry">
            <mxPoint x="550" y="160" as="targetPoint" />
          </mxGeometry>
        </mxCell>
        <mxCell id="DYGGpJQ-MnpBP76g9-tN-135" value="S`" style="ellipse;whiteSpace=wrap;html=1;aspect=fixed;rounded=1;fontFamily=Helvetica;fontSize=11;fontColor=default;labelBackgroundColor=default;" vertex="1" parent="1">
          <mxGeometry x="480" y="170" width="30" height="30" as="geometry" />
        </mxCell>
        <mxCell id="DYGGpJQ-MnpBP76g9-tN-138" value="(" style="ellipse;whiteSpace=wrap;html=1;aspect=fixed;rounded=1;fontFamily=Helvetica;fontSize=11;fontColor=default;labelBackgroundColor=default;" vertex="1" parent="1">
          <mxGeometry x="290" y="230" width="30" height="30" as="geometry" />
        </mxCell>
        <mxCell id="DYGGpJQ-MnpBP76g9-tN-140" value=")" style="ellipse;whiteSpace=wrap;html=1;aspect=fixed;rounded=1;fontFamily=Helvetica;fontSize=11;fontColor=default;labelBackgroundColor=default;" vertex="1" parent="1">
          <mxGeometry x="390" y="230" width="30" height="30" as="geometry" />
        </mxCell>
        <mxCell id="DYGGpJQ-MnpBP76g9-tN-141" value="[" style="ellipse;whiteSpace=wrap;html=1;aspect=fixed;rounded=1;fontFamily=Helvetica;fontSize=11;fontColor=default;labelBackgroundColor=default;" vertex="1" parent="1">
          <mxGeometry x="440" y="230" width="30" height="30" as="geometry" />
        </mxCell>
        <mxCell id="DYGGpJQ-MnpBP76g9-tN-142" value="]" style="ellipse;whiteSpace=wrap;html=1;aspect=fixed;rounded=1;fontFamily=Helvetica;fontSize=11;fontColor=default;labelBackgroundColor=default;" vertex="1" parent="1">
          <mxGeometry x="540" y="230" width="30" height="30" as="geometry" />
        </mxCell>
        <mxCell id="DYGGpJQ-MnpBP76g9-tN-154" style="edgeStyle=none;shape=connector;rounded=1;orthogonalLoop=1;jettySize=auto;html=1;strokeColor=default;align=center;verticalAlign=middle;fontFamily=Helvetica;fontSize=11;fontColor=default;labelBackgroundColor=default;endArrow=classic;" edge="1" parent="1" source="DYGGpJQ-MnpBP76g9-tN-143" target="DYGGpJQ-MnpBP76g9-tN-153">
          <mxGeometry relative="1" as="geometry" />
        </mxCell>
        <mxCell id="DYGGpJQ-MnpBP76g9-tN-155" style="edgeStyle=none;shape=connector;rounded=1;orthogonalLoop=1;jettySize=auto;html=1;strokeColor=default;align=center;verticalAlign=middle;fontFamily=Helvetica;fontSize=11;fontColor=default;labelBackgroundColor=default;endArrow=classic;" edge="1" parent="1" source="DYGGpJQ-MnpBP76g9-tN-143" target="DYGGpJQ-MnpBP76g9-tN-152">
          <mxGeometry relative="1" as="geometry" />
        </mxCell>
        <mxCell id="DYGGpJQ-MnpBP76g9-tN-143" value="S" style="ellipse;whiteSpace=wrap;html=1;aspect=fixed;rounded=1;fontFamily=Helvetica;fontSize=11;fontColor=default;labelBackgroundColor=default;" vertex="1" parent="1">
          <mxGeometry x="490" y="230" width="30" height="30" as="geometry" />
        </mxCell>
        <mxCell id="DYGGpJQ-MnpBP76g9-tN-144" value="O`" style="ellipse;whiteSpace=wrap;html=1;aspect=fixed;rounded=1;fontFamily=Helvetica;fontSize=11;fontColor=default;labelBackgroundColor=default;" vertex="1" parent="1">
          <mxGeometry x="630" y="230" width="30" height="30" as="geometry" />
        </mxCell>
        <mxCell id="DYGGpJQ-MnpBP76g9-tN-150" value="&amp;lt;" style="ellipse;whiteSpace=wrap;html=1;aspect=fixed;rounded=1;fontFamily=Helvetica;fontSize=11;fontColor=default;labelBackgroundColor=default;" vertex="1" parent="1">
          <mxGeometry x="360" y="330" width="30" height="30" as="geometry" />
        </mxCell>
        <mxCell id="DYGGpJQ-MnpBP76g9-tN-187" style="edgeStyle=none;shape=connector;rounded=1;orthogonalLoop=1;jettySize=auto;html=1;strokeColor=default;align=center;verticalAlign=middle;fontFamily=Helvetica;fontSize=11;fontColor=default;labelBackgroundColor=default;endArrow=classic;" edge="1" parent="1" source="DYGGpJQ-MnpBP76g9-tN-152" target="DYGGpJQ-MnpBP76g9-tN-186">
          <mxGeometry relative="1" as="geometry" />
        </mxCell>
        <mxCell id="DYGGpJQ-MnpBP76g9-tN-152" value="S`" style="ellipse;whiteSpace=wrap;html=1;aspect=fixed;rounded=1;fontFamily=Helvetica;fontSize=11;fontColor=default;labelBackgroundColor=default;" vertex="1" parent="1">
          <mxGeometry x="540" y="270" width="30" height="30" as="geometry" />
        </mxCell>
        <mxCell id="DYGGpJQ-MnpBP76g9-tN-153" value="O" style="ellipse;whiteSpace=wrap;html=1;aspect=fixed;rounded=1;fontFamily=Helvetica;fontSize=11;fontColor=default;labelBackgroundColor=default;" vertex="1" parent="1">
          <mxGeometry x="470" y="280" width="30" height="30" as="geometry" />
        </mxCell>
        <mxCell id="DYGGpJQ-MnpBP76g9-tN-158" value="" style="edgeStyle=none;shape=connector;rounded=1;orthogonalLoop=1;jettySize=auto;html=1;strokeColor=default;align=center;verticalAlign=middle;fontFamily=Helvetica;fontSize=11;fontColor=default;labelBackgroundColor=default;endArrow=classic;" edge="1" parent="1" source="DYGGpJQ-MnpBP76g9-tN-153" target="DYGGpJQ-MnpBP76g9-tN-161">
          <mxGeometry relative="1" as="geometry">
            <mxPoint x="525.4249619560958" y="356.546369405884" as="sourcePoint" />
          </mxGeometry>
        </mxCell>
        <mxCell id="DYGGpJQ-MnpBP76g9-tN-159" value="" style="edgeStyle=none;shape=connector;rounded=1;orthogonalLoop=1;jettySize=auto;html=1;strokeColor=default;align=center;verticalAlign=middle;fontFamily=Helvetica;fontSize=11;fontColor=default;labelBackgroundColor=default;endArrow=classic;" edge="1" parent="1" source="DYGGpJQ-MnpBP76g9-tN-153" target="DYGGpJQ-MnpBP76g9-tN-164">
          <mxGeometry relative="1" as="geometry">
            <mxPoint x="541.5695413491837" y="358.4848480325352" as="sourcePoint" />
          </mxGeometry>
        </mxCell>
        <mxCell id="DYGGpJQ-MnpBP76g9-tN-161" value="a" style="ellipse;whiteSpace=wrap;html=1;aspect=fixed;rounded=1;fontFamily=Helvetica;fontSize=11;fontColor=default;labelBackgroundColor=default;" vertex="1" parent="1">
          <mxGeometry x="450" y="330" width="30" height="30" as="geometry" />
        </mxCell>
        <mxCell id="DYGGpJQ-MnpBP76g9-tN-162" value="" style="edgeStyle=none;shape=connector;rounded=1;orthogonalLoop=1;jettySize=auto;html=1;strokeColor=default;align=center;verticalAlign=middle;fontFamily=Helvetica;fontSize=11;fontColor=default;labelBackgroundColor=default;endArrow=classic;" edge="1" parent="1" source="DYGGpJQ-MnpBP76g9-tN-164" target="DYGGpJQ-MnpBP76g9-tN-165">
          <mxGeometry relative="1" as="geometry" />
        </mxCell>
        <mxCell id="DYGGpJQ-MnpBP76g9-tN-163" value="" style="edgeStyle=none;shape=connector;rounded=1;orthogonalLoop=1;jettySize=auto;html=1;strokeColor=default;align=center;verticalAlign=middle;fontFamily=Helvetica;fontSize=11;fontColor=default;labelBackgroundColor=default;endArrow=classic;" edge="1" parent="1" source="DYGGpJQ-MnpBP76g9-tN-164" target="DYGGpJQ-MnpBP76g9-tN-168">
          <mxGeometry relative="1" as="geometry" />
        </mxCell>
        <mxCell id="DYGGpJQ-MnpBP76g9-tN-164" value="O1" style="ellipse;whiteSpace=wrap;html=1;aspect=fixed;rounded=1;fontFamily=Helvetica;fontSize=11;fontColor=default;labelBackgroundColor=default;" vertex="1" parent="1">
          <mxGeometry x="510" y="330" width="30" height="30" as="geometry" />
        </mxCell>
        <mxCell id="DYGGpJQ-MnpBP76g9-tN-165" value="=" style="ellipse;whiteSpace=wrap;html=1;aspect=fixed;rounded=1;fontFamily=Helvetica;fontSize=11;fontColor=default;labelBackgroundColor=default;" vertex="1" parent="1">
          <mxGeometry x="470" y="380" width="30" height="30" as="geometry" />
        </mxCell>
        <mxCell id="DYGGpJQ-MnpBP76g9-tN-166" style="edgeStyle=none;shape=connector;rounded=1;orthogonalLoop=1;jettySize=auto;html=1;strokeColor=default;align=center;verticalAlign=middle;fontFamily=Helvetica;fontSize=11;fontColor=default;labelBackgroundColor=default;endArrow=classic;" edge="1" parent="1" source="DYGGpJQ-MnpBP76g9-tN-168" target="DYGGpJQ-MnpBP76g9-tN-169">
          <mxGeometry relative="1" as="geometry" />
        </mxCell>
        <mxCell id="DYGGpJQ-MnpBP76g9-tN-167" value="" style="edgeStyle=none;shape=connector;rounded=1;orthogonalLoop=1;jettySize=auto;html=1;strokeColor=default;align=center;verticalAlign=middle;fontFamily=Helvetica;fontSize=11;fontColor=default;labelBackgroundColor=default;endArrow=classic;" edge="1" parent="1" source="DYGGpJQ-MnpBP76g9-tN-168" target="DYGGpJQ-MnpBP76g9-tN-171">
          <mxGeometry relative="1" as="geometry" />
        </mxCell>
        <mxCell id="DYGGpJQ-MnpBP76g9-tN-168" value="O2" style="ellipse;whiteSpace=wrap;html=1;aspect=fixed;rounded=1;fontFamily=Helvetica;fontSize=11;fontColor=default;labelBackgroundColor=default;" vertex="1" parent="1">
          <mxGeometry x="550" y="380" width="30" height="30" as="geometry" />
        </mxCell>
        <mxCell id="DYGGpJQ-MnpBP76g9-tN-169" value="(" style="ellipse;whiteSpace=wrap;html=1;aspect=fixed;rounded=1;fontFamily=Helvetica;fontSize=11;fontColor=default;labelBackgroundColor=default;" vertex="1" parent="1">
          <mxGeometry x="510" y="430" width="30" height="30" as="geometry" />
        </mxCell>
        <mxCell id="DYGGpJQ-MnpBP76g9-tN-170" value="" style="edgeStyle=none;shape=connector;rounded=1;orthogonalLoop=1;jettySize=auto;html=1;strokeColor=default;align=center;verticalAlign=middle;fontFamily=Helvetica;fontSize=11;fontColor=default;labelBackgroundColor=default;endArrow=classic;" edge="1" parent="1" source="DYGGpJQ-MnpBP76g9-tN-171" target="DYGGpJQ-MnpBP76g9-tN-177">
          <mxGeometry relative="1" as="geometry" />
        </mxCell>
        <mxCell id="DYGGpJQ-MnpBP76g9-tN-171" value="E" style="ellipse;whiteSpace=wrap;html=1;aspect=fixed;rounded=1;fontFamily=Helvetica;fontSize=11;fontColor=default;labelBackgroundColor=default;" vertex="1" parent="1">
          <mxGeometry x="570" y="430" width="30" height="30" as="geometry" />
        </mxCell>
        <mxCell id="DYGGpJQ-MnpBP76g9-tN-172" value="" style="edgeStyle=none;shape=connector;rounded=1;orthogonalLoop=1;jettySize=auto;html=1;strokeColor=default;align=center;verticalAlign=middle;fontFamily=Helvetica;fontSize=11;fontColor=default;labelBackgroundColor=default;endArrow=classic;" edge="1" parent="1" source="DYGGpJQ-MnpBP76g9-tN-175" target="DYGGpJQ-MnpBP76g9-tN-178">
          <mxGeometry relative="1" as="geometry" />
        </mxCell>
        <mxCell id="DYGGpJQ-MnpBP76g9-tN-173" value="" style="edgeStyle=none;shape=connector;rounded=1;orthogonalLoop=1;jettySize=auto;html=1;strokeColor=default;align=center;verticalAlign=middle;fontFamily=Helvetica;fontSize=11;fontColor=default;labelBackgroundColor=default;endArrow=classic;" edge="1" parent="1" source="DYGGpJQ-MnpBP76g9-tN-175" target="DYGGpJQ-MnpBP76g9-tN-180">
          <mxGeometry relative="1" as="geometry" />
        </mxCell>
        <mxCell id="DYGGpJQ-MnpBP76g9-tN-174" value="" style="edgeStyle=none;shape=connector;rounded=1;orthogonalLoop=1;jettySize=auto;html=1;strokeColor=default;align=center;verticalAlign=middle;fontFamily=Helvetica;fontSize=11;fontColor=default;labelBackgroundColor=default;endArrow=classic;" edge="1" parent="1" source="DYGGpJQ-MnpBP76g9-tN-175" target="DYGGpJQ-MnpBP76g9-tN-181">
          <mxGeometry relative="1" as="geometry" />
        </mxCell>
        <mxCell id="DYGGpJQ-MnpBP76g9-tN-175" value="E`" style="ellipse;whiteSpace=wrap;html=1;aspect=fixed;rounded=1;fontFamily=Helvetica;fontSize=11;fontColor=default;labelBackgroundColor=default;" vertex="1" parent="1">
          <mxGeometry x="630" y="430" width="30" height="30" as="geometry" />
        </mxCell>
        <mxCell id="DYGGpJQ-MnpBP76g9-tN-176" value="" style="edgeStyle=none;shape=connector;rounded=1;orthogonalLoop=1;jettySize=auto;html=1;strokeColor=default;align=center;verticalAlign=middle;fontFamily=Helvetica;fontSize=11;fontColor=default;labelBackgroundColor=default;endArrow=classic;" edge="1" parent="1" source="DYGGpJQ-MnpBP76g9-tN-168" target="DYGGpJQ-MnpBP76g9-tN-175">
          <mxGeometry relative="1" as="geometry">
            <mxPoint x="581" y="419" as="sourcePoint" />
            <mxPoint x="589" y="441" as="targetPoint" />
          </mxGeometry>
        </mxCell>
        <mxCell id="DYGGpJQ-MnpBP76g9-tN-177" value="a" style="ellipse;whiteSpace=wrap;html=1;aspect=fixed;rounded=1;fontFamily=Helvetica;fontSize=11;fontColor=default;labelBackgroundColor=default;" vertex="1" parent="1">
          <mxGeometry x="570" y="480" width="30" height="30" as="geometry" />
        </mxCell>
        <mxCell id="DYGGpJQ-MnpBP76g9-tN-178" value="*" style="ellipse;whiteSpace=wrap;html=1;aspect=fixed;rounded=1;fontFamily=Helvetica;fontSize=11;fontColor=default;labelBackgroundColor=default;" vertex="1" parent="1">
          <mxGeometry x="620" y="480" width="30" height="30" as="geometry" />
        </mxCell>
        <mxCell id="DYGGpJQ-MnpBP76g9-tN-179" style="edgeStyle=none;shape=connector;rounded=1;orthogonalLoop=1;jettySize=auto;html=1;strokeColor=default;align=center;verticalAlign=middle;fontFamily=Helvetica;fontSize=11;fontColor=default;labelBackgroundColor=default;endArrow=classic;" edge="1" parent="1" source="DYGGpJQ-MnpBP76g9-tN-180" target="DYGGpJQ-MnpBP76g9-tN-182">
          <mxGeometry relative="1" as="geometry" />
        </mxCell>
        <mxCell id="DYGGpJQ-MnpBP76g9-tN-180" value="E" style="ellipse;whiteSpace=wrap;html=1;aspect=fixed;rounded=1;fontFamily=Helvetica;fontSize=11;fontColor=default;labelBackgroundColor=default;" vertex="1" parent="1">
          <mxGeometry x="660" y="480" width="30" height="30" as="geometry" />
        </mxCell>
        <mxCell id="DYGGpJQ-MnpBP76g9-tN-181" value=")" style="ellipse;whiteSpace=wrap;html=1;aspect=fixed;rounded=1;fontFamily=Helvetica;fontSize=11;fontColor=default;labelBackgroundColor=default;" vertex="1" parent="1">
          <mxGeometry x="700" y="480" width="30" height="30" as="geometry" />
        </mxCell>
        <mxCell id="DYGGpJQ-MnpBP76g9-tN-182" value="a" style="ellipse;whiteSpace=wrap;html=1;aspect=fixed;rounded=1;fontFamily=Helvetica;fontSize=11;fontColor=default;labelBackgroundColor=default;" vertex="1" parent="1">
          <mxGeometry x="660" y="530" width="30" height="30" as="geometry" />
        </mxCell>
        <mxCell id="DYGGpJQ-MnpBP76g9-tN-184" value="e" style="ellipse;whiteSpace=wrap;html=1;aspect=fixed;rounded=1;fontFamily=Helvetica;fontSize=11;fontColor=default;labelBackgroundColor=default;" vertex="1" parent="1">
          <mxGeometry x="527" y="190" width="30" height="30" as="geometry" />
        </mxCell>
        <mxCell id="DYGGpJQ-MnpBP76g9-tN-186" value="e" style="ellipse;whiteSpace=wrap;html=1;aspect=fixed;rounded=1;fontFamily=Helvetica;fontSize=11;fontColor=default;labelBackgroundColor=default;" vertex="1" parent="1">
          <mxGeometry x="570" y="310" width="30" height="30" as="geometry" />
        </mxCell>
        <mxCell id="DYGGpJQ-MnpBP76g9-tN-188" value="" style="edgeStyle=none;shape=connector;rounded=1;orthogonalLoop=1;jettySize=auto;html=1;strokeColor=default;align=center;verticalAlign=middle;fontFamily=Helvetica;fontSize=11;fontColor=default;labelBackgroundColor=default;endArrow=classic;" edge="1" parent="1" source="DYGGpJQ-MnpBP76g9-tN-189" target="DYGGpJQ-MnpBP76g9-tN-192">
          <mxGeometry relative="1" as="geometry" />
        </mxCell>
        <mxCell id="DYGGpJQ-MnpBP76g9-tN-204" value="" style="edgeStyle=none;shape=connector;rounded=1;orthogonalLoop=1;jettySize=auto;html=1;strokeColor=default;align=center;verticalAlign=middle;fontFamily=Helvetica;fontSize=11;fontColor=default;labelBackgroundColor=default;endArrow=classic;" edge="1" parent="1" source="DYGGpJQ-MnpBP76g9-tN-189" target="DYGGpJQ-MnpBP76g9-tN-203">
          <mxGeometry relative="1" as="geometry" />
        </mxCell>
        <mxCell id="DYGGpJQ-MnpBP76g9-tN-189" value="S" style="ellipse;whiteSpace=wrap;html=1;aspect=fixed;rounded=1;fontFamily=Helvetica;fontSize=11;fontColor=default;labelBackgroundColor=default;" vertex="1" parent="1">
          <mxGeometry x="1320" y="60" width="30" height="30" as="geometry" />
        </mxCell>
        <mxCell id="DYGGpJQ-MnpBP76g9-tN-190" value="" style="edgeStyle=none;shape=connector;rounded=1;orthogonalLoop=1;jettySize=auto;html=1;strokeColor=default;align=center;verticalAlign=middle;fontFamily=Helvetica;fontSize=11;fontColor=default;labelBackgroundColor=default;endArrow=classic;" edge="1" parent="1" source="DYGGpJQ-MnpBP76g9-tN-192" target="DYGGpJQ-MnpBP76g9-tN-193">
          <mxGeometry relative="1" as="geometry">
            <mxPoint x="1260.0012105213132" y="149.99717545026928" as="sourcePoint" />
          </mxGeometry>
        </mxCell>
        <mxCell id="DYGGpJQ-MnpBP76g9-tN-191" value="" style="edgeStyle=none;shape=connector;rounded=1;orthogonalLoop=1;jettySize=auto;html=1;strokeColor=default;align=center;verticalAlign=middle;fontFamily=Helvetica;fontSize=11;fontColor=default;labelBackgroundColor=default;endArrow=classic;" edge="1" parent="1" source="DYGGpJQ-MnpBP76g9-tN-192" target="DYGGpJQ-MnpBP76g9-tN-196">
          <mxGeometry relative="1" as="geometry" />
        </mxCell>
        <mxCell id="DYGGpJQ-MnpBP76g9-tN-192" value="O" style="ellipse;whiteSpace=wrap;html=1;aspect=fixed;rounded=1;fontFamily=Helvetica;fontSize=11;fontColor=default;labelBackgroundColor=default;" vertex="1" parent="1">
          <mxGeometry x="1260" y="120" width="30" height="30" as="geometry" />
        </mxCell>
        <mxCell id="DYGGpJQ-MnpBP76g9-tN-193" value="a" style="ellipse;whiteSpace=wrap;html=1;aspect=fixed;rounded=1;fontFamily=Helvetica;fontSize=11;fontColor=default;labelBackgroundColor=default;" vertex="1" parent="1">
          <mxGeometry x="1210" y="180" width="30" height="30" as="geometry" />
        </mxCell>
        <mxCell id="DYGGpJQ-MnpBP76g9-tN-194" value="" style="edgeStyle=none;shape=connector;rounded=1;orthogonalLoop=1;jettySize=auto;html=1;strokeColor=default;align=center;verticalAlign=middle;fontFamily=Helvetica;fontSize=11;fontColor=default;labelBackgroundColor=default;endArrow=classic;" edge="1" parent="1" source="DYGGpJQ-MnpBP76g9-tN-196" target="DYGGpJQ-MnpBP76g9-tN-197">
          <mxGeometry relative="1" as="geometry" />
        </mxCell>
        <mxCell id="DYGGpJQ-MnpBP76g9-tN-195" value="" style="edgeStyle=none;shape=connector;rounded=1;orthogonalLoop=1;jettySize=auto;html=1;strokeColor=default;align=center;verticalAlign=middle;fontFamily=Helvetica;fontSize=11;fontColor=default;labelBackgroundColor=default;endArrow=classic;" edge="1" parent="1" source="DYGGpJQ-MnpBP76g9-tN-196" target="DYGGpJQ-MnpBP76g9-tN-200">
          <mxGeometry relative="1" as="geometry" />
        </mxCell>
        <mxCell id="DYGGpJQ-MnpBP76g9-tN-196" value="O1" style="ellipse;whiteSpace=wrap;html=1;aspect=fixed;rounded=1;fontFamily=Helvetica;fontSize=11;fontColor=default;labelBackgroundColor=default;" vertex="1" parent="1">
          <mxGeometry x="1290" y="180" width="30" height="30" as="geometry" />
        </mxCell>
        <mxCell id="DYGGpJQ-MnpBP76g9-tN-197" value="=" style="ellipse;whiteSpace=wrap;html=1;aspect=fixed;rounded=1;fontFamily=Helvetica;fontSize=11;fontColor=default;labelBackgroundColor=default;" vertex="1" parent="1">
          <mxGeometry x="1250" y="230" width="30" height="30" as="geometry" />
        </mxCell>
        <mxCell id="DYGGpJQ-MnpBP76g9-tN-198" style="edgeStyle=none;shape=connector;rounded=1;orthogonalLoop=1;jettySize=auto;html=1;strokeColor=default;align=center;verticalAlign=middle;fontFamily=Helvetica;fontSize=11;fontColor=default;labelBackgroundColor=default;endArrow=classic;" edge="1" parent="1" source="DYGGpJQ-MnpBP76g9-tN-200" target="DYGGpJQ-MnpBP76g9-tN-201">
          <mxGeometry relative="1" as="geometry" />
        </mxCell>
        <mxCell id="DYGGpJQ-MnpBP76g9-tN-199" style="edgeStyle=none;shape=connector;rounded=1;orthogonalLoop=1;jettySize=auto;html=1;strokeColor=default;align=center;verticalAlign=middle;fontFamily=Helvetica;fontSize=11;fontColor=default;labelBackgroundColor=default;endArrow=classic;" edge="1" parent="1" source="DYGGpJQ-MnpBP76g9-tN-200" target="DYGGpJQ-MnpBP76g9-tN-202">
          <mxGeometry relative="1" as="geometry" />
        </mxCell>
        <mxCell id="DYGGpJQ-MnpBP76g9-tN-200" value="O2" style="ellipse;whiteSpace=wrap;html=1;aspect=fixed;rounded=1;fontFamily=Helvetica;fontSize=11;fontColor=default;labelBackgroundColor=default;" vertex="1" parent="1">
          <mxGeometry x="1330" y="230" width="30" height="30" as="geometry" />
        </mxCell>
        <mxCell id="DYGGpJQ-MnpBP76g9-tN-201" value="a" style="ellipse;whiteSpace=wrap;html=1;aspect=fixed;rounded=1;fontFamily=Helvetica;fontSize=11;fontColor=default;labelBackgroundColor=default;" vertex="1" parent="1">
          <mxGeometry x="1300" y="280" width="30" height="30" as="geometry" />
        </mxCell>
        <mxCell id="DYGGpJQ-MnpBP76g9-tN-208" value="" style="edgeStyle=none;shape=connector;rounded=1;orthogonalLoop=1;jettySize=auto;html=1;strokeColor=default;align=center;verticalAlign=middle;fontFamily=Helvetica;fontSize=11;fontColor=default;labelBackgroundColor=default;endArrow=classic;" edge="1" parent="1" source="DYGGpJQ-MnpBP76g9-tN-202" target="DYGGpJQ-MnpBP76g9-tN-207">
          <mxGeometry relative="1" as="geometry" />
        </mxCell>
        <mxCell id="DYGGpJQ-MnpBP76g9-tN-202" value="O3" style="ellipse;whiteSpace=wrap;html=1;aspect=fixed;rounded=1;fontFamily=Helvetica;fontSize=11;fontColor=default;labelBackgroundColor=default;" vertex="1" parent="1">
          <mxGeometry x="1370" y="280" width="30" height="30" as="geometry" />
        </mxCell>
        <mxCell id="DYGGpJQ-MnpBP76g9-tN-206" value="" style="edgeStyle=none;shape=connector;rounded=1;orthogonalLoop=1;jettySize=auto;html=1;strokeColor=default;align=center;verticalAlign=middle;fontFamily=Helvetica;fontSize=11;fontColor=default;labelBackgroundColor=default;endArrow=classic;" edge="1" parent="1" source="DYGGpJQ-MnpBP76g9-tN-203" target="DYGGpJQ-MnpBP76g9-tN-205">
          <mxGeometry relative="1" as="geometry" />
        </mxCell>
        <mxCell id="DYGGpJQ-MnpBP76g9-tN-203" value="S`" style="ellipse;whiteSpace=wrap;html=1;aspect=fixed;rounded=1;fontFamily=Helvetica;fontSize=11;fontColor=default;labelBackgroundColor=default;" vertex="1" parent="1">
          <mxGeometry x="1390" y="120" width="30" height="30" as="geometry" />
        </mxCell>
        <mxCell id="DYGGpJQ-MnpBP76g9-tN-205" value="e" style="ellipse;whiteSpace=wrap;html=1;aspect=fixed;rounded=1;fontFamily=Helvetica;fontSize=11;fontColor=default;labelBackgroundColor=default;" vertex="1" parent="1">
          <mxGeometry x="1390" y="170" width="30" height="30" as="geometry" />
        </mxCell>
        <mxCell id="DYGGpJQ-MnpBP76g9-tN-207" value="e" style="ellipse;whiteSpace=wrap;html=1;aspect=fixed;rounded=1;fontFamily=Helvetica;fontSize=11;fontColor=default;labelBackgroundColor=default;" vertex="1" parent="1">
          <mxGeometry x="1370" y="340" width="30" height="30" as="geometry" />
        </mxCell>
      </root>
    </mxGraphModel>
  </diagram>
</mxfile>
